<svg width="56" height="56" viewBox="0 0 56 56" fill="none" xmlns="http://www.w3.org/2000/svg">
<g clip-path="url(#clip0_6622_20910)">
<rect width="56" height="56" rx="8" fill="black"/>
<path d="M28.0156 -2.33337C15.3482 -2.33337 11.6435 -2.32031 10.9234 -2.26057C8.32384 -2.04448 6.70623 -1.63518 4.94395 -0.757774C3.58584 -0.0833836 2.51475 0.698349 1.45766 1.79418C-0.467505 3.79261 -1.63427 6.25122 -2.05664 9.17373C-2.26199 10.5925 -2.32173 10.8819 -2.33386 18.1289C-2.33853 20.5446 -2.33386 23.7238 -2.33386 27.9881C-2.33386 40.6451 -2.31986 44.3461 -2.25919 45.0648C-2.04917 47.5944 -1.65247 49.1859 -0.812401 50.9267C0.793068 54.2589 3.85933 56.7605 7.47163 57.6939C8.72241 58.0159 10.1039 58.1933 11.8773 58.2773C12.6287 58.31 20.2874 58.3333 27.9507 58.3333C35.614 58.3333 43.2773 58.324 44.0101 58.2866C46.0636 58.19 47.256 58.0299 48.5744 57.6892C50.3656 57.2299 52.0348 56.3851 53.4657 55.2139C54.8965 54.0426 56.0544 52.5731 56.8585 50.908C57.6822 49.2092 58.0999 47.557 58.2889 45.1596C58.33 44.6369 58.3473 36.3029 58.3473 27.9801C58.3473 19.656 58.3286 11.3374 58.2875 10.8147C58.0962 8.37847 57.6785 6.74033 56.8281 5.00885C56.1304 3.59146 55.3557 2.53297 54.2309 1.45068C52.2241 -0.466549 49.7692 -1.63331 46.8434 -2.05522C45.426 -2.2601 45.1437 -2.32077 37.8911 -2.33337H28.0156Z" fill="url(#paint0_radial_6622_20910)"/>
<path d="M28.0156 -2.33337C15.3482 -2.33337 11.6435 -2.32031 10.9234 -2.26057C8.32384 -2.04448 6.70623 -1.63518 4.94395 -0.757774C3.58584 -0.0833836 2.51475 0.698349 1.45766 1.79418C-0.467505 3.79261 -1.63427 6.25122 -2.05664 9.17373C-2.26199 10.5925 -2.32173 10.8819 -2.33386 18.1289C-2.33853 20.5446 -2.33386 23.7238 -2.33386 27.9881C-2.33386 40.6451 -2.31986 44.3461 -2.25919 45.0648C-2.04917 47.5944 -1.65247 49.1859 -0.812401 50.9267C0.793068 54.2589 3.85933 56.7605 7.47163 57.6939C8.72241 58.0159 10.1039 58.1933 11.8773 58.2773C12.6287 58.31 20.2874 58.3333 27.9507 58.3333C35.614 58.3333 43.2773 58.324 44.0101 58.2866C46.0636 58.19 47.256 58.0299 48.5744 57.6892C50.3656 57.2299 52.0348 56.3851 53.4657 55.2139C54.8965 54.0426 56.0544 52.5731 56.8585 50.908C57.6822 49.2092 58.0999 47.557 58.2889 45.1596C58.33 44.6369 58.3473 36.3029 58.3473 27.9801C58.3473 19.656 58.3286 11.3374 58.2875 10.8147C58.0962 8.37847 57.6785 6.74033 56.8281 5.00885C56.1304 3.59146 55.3557 2.53297 54.2309 1.45068C52.2241 -0.466549 49.7692 -1.63331 46.8434 -2.05522C45.426 -2.2601 45.1437 -2.32077 37.8911 -2.33337H28.0156Z" fill="url(#paint1_radial_6622_20910)"/>
<path d="M27.9992 11.6659C23.5631 11.6659 23.0064 11.6853 21.2641 11.7646C19.5252 11.8442 18.3382 12.1195 17.2997 12.5234C16.2254 12.9406 15.3141 13.4987 14.4061 14.407C13.4976 15.3149 12.9395 16.2262 12.5209 17.3001C12.116 18.339 11.8403 19.5263 11.7621 21.2646C11.6845 23.0069 11.6641 23.5639 11.6641 28C11.6641 32.436 11.6838 32.9911 11.7627 34.7334C11.8427 36.4723 12.118 37.6592 12.5216 38.6978C12.9391 39.7721 13.4972 40.6834 14.4055 41.5913C15.313 42.4999 16.2243 43.0593 17.298 43.4765C18.3372 43.8805 19.5245 44.1558 21.2631 44.2354C23.0054 44.3147 23.5617 44.3341 27.9975 44.3341C32.4339 44.3341 32.9889 44.3147 34.7312 44.2354C36.4701 44.1558 37.6584 43.8805 38.6977 43.4765C39.7716 43.0593 40.6816 42.4999 41.5891 41.5913C42.4977 40.6834 43.0558 39.7721 43.4744 38.6981C43.8759 37.6592 44.1515 36.4719 44.2332 34.7337C44.3115 32.9914 44.3319 32.436 44.3319 28C44.3319 23.5639 44.3115 23.0072 44.2332 21.2649C44.1515 19.526 43.8759 18.339 43.4744 17.3005C43.0558 16.2262 42.4977 15.3149 41.5891 14.407C40.6805 13.4984 39.772 12.9403 38.6966 12.5234C37.6553 12.1195 36.4677 11.8442 34.7288 11.7646C32.9865 11.6853 32.4318 11.6659 27.9944 11.6659H27.9992ZM26.5339 14.6094C26.9688 14.6088 27.454 14.6094 27.9992 14.6094C32.3604 14.6094 32.8773 14.6251 34.5995 14.7034C36.1921 14.7762 37.0564 15.0423 37.6322 15.2659C38.3945 15.5619 38.9379 15.9158 39.5093 16.4875C40.0809 17.0592 40.4349 17.6037 40.7316 18.3659C40.9552 18.941 41.2216 19.8054 41.2941 21.3979C41.3724 23.1198 41.3894 23.6371 41.3894 27.9962C41.3894 32.3554 41.3724 32.8726 41.2941 34.5945C41.2213 36.1871 40.9552 37.0514 40.7316 37.6265C40.4355 38.3888 40.0809 38.9316 39.5093 39.5029C38.9376 40.0746 38.3948 40.4285 37.6322 40.7246C37.0571 40.9492 36.1921 41.2146 34.5995 41.2874C32.8776 41.3657 32.3604 41.3827 27.9992 41.3827C23.6376 41.3827 23.1207 41.3657 21.3988 41.2874C19.8063 41.2139 18.9419 40.9478 18.3658 40.7242C17.6035 40.4282 17.0591 40.0743 16.4874 39.5026C15.9157 38.9309 15.5618 38.3878 15.265 37.6252C15.0415 37.0501 14.775 36.1857 14.7025 34.5932C14.6243 32.8713 14.6086 32.354 14.6086 27.9922C14.6086 23.6303 14.6243 23.1157 14.7025 21.3939C14.7754 19.8013 15.0415 18.9369 15.265 18.3612C15.5611 17.5989 15.9157 17.0544 16.4874 16.4827C17.0591 15.9111 17.6035 15.5571 18.3658 15.2604C18.9416 15.0358 19.8063 14.7704 21.3988 14.6972C22.9057 14.6292 23.4896 14.6088 26.5339 14.6053V14.6094ZM36.7182 17.3216C36.3305 17.3216 35.9515 17.4365 35.6291 17.652C35.3068 17.8674 35.0555 18.1735 34.9072 18.5317C34.7589 18.8899 34.7201 19.2841 34.7958 19.6643C34.8715 20.0445 35.0582 20.3938 35.3324 20.6679C35.6066 20.942 35.9559 21.1286 36.3362 21.2042C36.7165 21.2797 37.1106 21.2408 37.4687 21.0924C37.8269 20.9439 38.133 20.6926 38.3483 20.3701C38.5636 20.0477 38.6784 19.6687 38.6783 19.281C38.6783 18.1988 37.8003 17.3209 36.7182 17.3209V17.3216ZM27.9992 19.6117C23.3668 19.6117 19.6109 23.3676 19.6109 28C19.6109 32.6324 23.3668 36.3865 27.9992 36.3865C32.6316 36.3865 36.3864 32.6324 36.3864 28C36.3864 23.3676 32.6316 19.6117 27.9992 19.6117ZM27.9992 22.5553C31.006 22.5553 33.4439 24.9928 33.4439 28C33.4439 31.0068 31.006 33.4447 27.9992 33.4447C24.992 33.4447 22.5545 31.0068 22.5545 28C22.5545 24.9928 24.992 22.5553 27.9992 22.5553Z" fill="white"/>
</g>
<defs>
<radialGradient id="paint0_radial_6622_20910" cx="0" cy="0" r="1" gradientUnits="userSpaceOnUse" gradientTransform="translate(13.7831 63.0059) rotate(-90) scale(60.1251 55.9364)">
<stop stop-color="#FFDD55"/>
<stop offset="0.1" stop-color="#FFDD55"/>
<stop offset="0.5" stop-color="#FF543E"/>
<stop offset="1" stop-color="#C837AB"/>
</radialGradient>
<radialGradient id="paint1_radial_6622_20910" cx="0" cy="0" r="1" gradientUnits="userSpaceOnUse" gradientTransform="translate(-12.5007 2.03695) rotate(78.6776) scale(26.8765 110.814)">
<stop stop-color="#3771C8"/>
<stop offset="0.128" stop-color="#3771C8"/>
<stop offset="1" stop-color="#6600FF" stop-opacity="0"/>
</radialGradient>
<clipPath id="clip0_6622_20910">
<rect width="56" height="56" rx="8" fill="white"/>
</clipPath>
</defs>
</svg>
